<?xml version="1.0" encoding="UTF-8"?>
<svg width="307px" height="53px" viewBox="0 0 307 53" version="1.1" xmlns="http://www.w3.org/2000/svg" xmlns:xlink="http://www.w3.org/1999/xlink">
    <!-- Generator: Sketch 43 (38999) - http://www.bohemiancoding.com/sketch -->
    <title>logo</title>
    <desc>Created with Sketch.</desc>
    <defs></defs>
    <g id="Page-1" stroke="none" stroke-width="1" fill="none" fill-rule="evenodd">
        <path d="M19.756,52.814 C32.78,52.814 39.514,46.08 39.514,36.978 C39.514,27.876 34.038,23.14 23.678,21.734 L21.014,21.364 C15.242,20.55 13.17,18.7 13.17,15.814 C13.17,12.632 15.464,10.338 19.904,10.338 C24.048,10.338 27.748,11.67 31.596,14.186 C31.966,14.408 32.336,14.334 32.632,13.964 L37.146,7.23 C37.516,6.712 37.442,6.416 36.998,6.12 C32.78,2.864 26.564,0.866 19.904,0.866 C9.026,0.866 2.07,7.008 2.07,16.258 C2.07,25.138 7.768,29.948 17.98,31.354 L20.644,31.724 C26.638,32.538 28.414,34.388 28.414,37.348 C28.414,40.9 25.454,43.342 20.2,43.342 C14.872,43.342 10.358,40.826 7.028,38.162 C6.658,37.866 6.214,37.866 5.918,38.236 L0.294,44.674 C-0.076,45.118 0.072,45.636 0.368,45.932 C4.29,49.706 11.912,52.814 19.756,52.814 Z M59.64,52.814 C52.092,52.814 46.172,49.262 44.1,42.75 C43.286,40.16 42.916,37.644 42.916,34.092 C42.916,30.54 43.286,28.024 44.1,25.434 C46.172,18.922 52.092,15.37 59.64,15.37 C67.188,15.37 73.108,18.922 75.18,25.434 C75.994,28.024 76.364,30.54 76.364,34.092 C76.364,37.644 75.994,40.16 75.18,42.75 C73.108,49.262 67.188,52.814 59.64,52.814 Z M59.64,44.082 C62.378,44.082 64.376,42.75 65.19,40.234 C65.708,38.606 65.856,37.126 65.856,34.092 C65.856,31.058 65.708,29.578 65.19,27.95 C64.376,25.434 62.378,24.102 59.64,24.102 C56.902,24.102 54.904,25.434 54.09,27.95 C53.572,29.578 53.424,31.058 53.424,34.092 C53.424,37.126 53.572,38.606 54.09,40.234 C54.904,42.75 56.902,44.082 59.64,44.082 Z M132.6,52 C133.044,52 133.34,51.704 133.34,51.26 L133.34,28.69 C133.34,20.772 128.974,15.37 120.538,15.37 C115.506,15.37 111.954,17.072 109.29,19.884 L109.216,19.884 C107.144,16.924 103.962,15.37 99.596,15.37 C95.008,15.37 91.974,17.22 90.346,19.44 L90.272,19.44 L90.272,16.924 C90.272,16.48 89.976,16.184 89.532,16.184 L80.652,16.184 C80.208,16.184 79.912,16.48 79.912,16.924 L79.912,51.26 C79.912,51.704 80.208,52 80.652,52 L89.532,52 C89.976,52 90.272,51.704 90.272,51.26 L90.272,30.688 C90.272,26.766 92.344,24.176 95.896,24.176 C99.596,24.176 101.446,26.766 101.446,30.688 L101.446,51.26 C101.446,51.704 101.742,52 102.186,52 L111.066,52 C111.51,52 111.806,51.704 111.806,51.26 L111.806,30.688 C111.806,26.766 113.804,24.176 117.356,24.176 C121.056,24.176 122.98,26.766 122.98,30.688 L122.98,51.26 C122.98,51.704 123.276,52 123.72,52 L132.6,52 Z M154.686,52.814 C146.546,52.814 140.922,49.04 138.85,42.602 C138.11,40.382 137.592,37.792 137.592,34.092 C137.592,30.318 138.036,27.728 138.776,25.508 C140.848,19.07 146.546,15.37 154.168,15.37 C162.086,15.37 167.562,19.144 169.634,25.434 C170.374,27.802 170.818,30.392 170.818,36.46 C170.818,36.904 170.522,37.2 170.004,37.2 L148.322,37.2 C148.026,37.2 147.878,37.348 147.878,37.644 C147.952,38.384 148.1,39.05 148.322,39.642 C149.284,42.75 152.022,44.378 155.722,44.378 C159.274,44.378 161.864,43.12 163.936,41.196 C164.306,40.9 164.676,40.826 164.972,41.196 L169.856,45.784 C170.226,46.08 170.226,46.524 169.93,46.82 C166.526,50.446 161.272,52.814 154.686,52.814 Z M148.322,30.318 L160.162,30.318 C160.458,30.318 160.606,30.17 160.606,29.874 C160.606,28.764 160.458,27.95 160.236,27.21 C159.422,24.768 157.202,23.288 154.242,23.288 C151.282,23.288 149.062,24.768 148.248,27.21 C148.026,27.95 147.878,28.764 147.878,29.874 C147.878,30.17 148.026,30.318 148.322,30.318 Z M211.924,52.814 C224.948,52.814 231.682,46.08 231.682,36.978 C231.682,27.876 226.206,23.14 215.846,21.734 L213.182,21.364 C207.41,20.55 205.338,18.7 205.338,15.814 C205.338,12.632 207.632,10.338 212.072,10.338 C216.216,10.338 219.916,11.67 223.764,14.186 C224.134,14.408 224.504,14.334 224.8,13.964 L229.314,7.23 C229.684,6.712 229.61,6.416 229.166,6.12 C224.948,2.864 218.732,0.866 212.072,0.866 C201.194,0.866 194.238,7.008 194.238,16.258 C194.238,25.138 199.936,29.948 210.148,31.354 L212.812,31.724 C218.806,32.538 220.582,34.388 220.582,37.348 C220.582,40.9 217.622,43.342 212.368,43.342 C207.04,43.342 202.526,40.826 199.196,38.162 C198.826,37.866 198.382,37.866 198.086,38.236 L192.462,44.674 C192.092,45.118 192.24,45.636 192.536,45.932 C196.458,49.706 204.08,52.814 211.924,52.814 Z M245.48,10.486 C245.924,10.486 246.22,10.19 246.22,9.746 L246.22,2.42 C246.22,1.976 245.924,1.68 245.48,1.68 L236.6,1.68 C236.156,1.68 235.86,1.976 235.86,2.42 L235.86,9.746 C235.86,10.19 236.156,10.486 236.6,10.486 L245.48,10.486 Z M245.48,52 C245.924,52 246.22,51.704 246.22,51.26 L246.22,16.924 C246.22,16.48 245.924,16.184 245.48,16.184 L236.6,16.184 C236.156,16.184 235.86,16.48 235.86,16.924 L235.86,51.26 C235.86,51.704 236.156,52 236.6,52 L245.48,52 Z M269.602,52.444 C270.046,52.444 270.342,52.148 270.342,51.704 L270.342,44.378 C270.342,43.934 270.046,43.638 269.602,43.638 L267.826,43.638 C265.458,43.638 264.57,42.75 264.57,40.086 L264.57,24.25 C264.57,23.954 264.718,23.806 265.014,23.806 L269.602,23.806 C270.046,23.806 270.342,23.51 270.342,23.066 L270.342,16.924 C270.342,16.48 270.046,16.184 269.602,16.184 L265.014,16.184 C264.718,16.184 264.57,16.036 264.57,15.74 L264.57,6.12 C264.57,5.676 264.274,5.38 263.83,5.38 L255.024,5.38 C254.58,5.38 254.284,5.676 254.284,6.12 L254.284,15.74 C254.284,16.036 254.136,16.184 253.84,16.184 L251.62,16.184 C251.176,16.184 250.88,16.48 250.88,16.924 L250.88,23.066 C250.88,23.51 251.176,23.806 251.62,23.806 L253.84,23.806 C254.136,23.806 254.284,23.954 254.284,24.25 L254.284,40.53 C254.284,48.744 257.392,52.444 265.68,52.444 L269.602,52.444 Z M290.356,52.814 C282.216,52.814 276.592,49.04 274.52,42.602 C273.78,40.382 273.262,37.792 273.262,34.092 C273.262,30.318 273.706,27.728 274.446,25.508 C276.518,19.07 282.216,15.37 289.838,15.37 C297.756,15.37 303.232,19.144 305.304,25.434 C306.044,27.802 306.488,30.392 306.488,36.46 C306.488,36.904 306.192,37.2 305.674,37.2 L283.992,37.2 C283.696,37.2 283.548,37.348 283.548,37.644 C283.622,38.384 283.77,39.05 283.992,39.642 C284.954,42.75 287.692,44.378 291.392,44.378 C294.944,44.378 297.534,43.12 299.606,41.196 C299.976,40.9 300.346,40.826 300.642,41.196 L305.526,45.784 C305.896,46.08 305.896,46.524 305.6,46.82 C302.196,50.446 296.942,52.814 290.356,52.814 Z M283.992,30.318 L295.832,30.318 C296.128,30.318 296.276,30.17 296.276,29.874 C296.276,28.764 296.128,27.95 295.906,27.21 C295.092,24.768 292.872,23.288 289.912,23.288 C286.952,23.288 284.732,24.768 283.918,27.21 C283.696,27.95 283.548,28.764 283.548,29.874 C283.548,30.17 283.696,30.318 283.992,30.318 Z" id="logo" fill="#3B88ED"></path>
    </g>
</svg>